<?xml version="1.0" standalone="no"?>
<!DOCTYPE svg PUBLIC "-//W3C//DTD SVG 20010904//EN"
 "http://www.w3.org/TR/2001/REC-SVG-20010904/DTD/svg10.dtd">
<svg version="1.0" xmlns="http://www.w3.org/2000/svg"
 width="900.000000pt" height="240.000000pt" viewBox="0 0 900.000000 240.000000"
 preserveAspectRatio="xMidYMid meet">
<metadata>
Created by potrace 1.10, written by Peter Selinger 2001-2011
</metadata>
<g transform="translate(0.000000,240.000000) scale(0.100000,-0.100000)"
fill="#ca0e0e" stroke="none">
<path d="M0 1200 l0 -1200 4500 0 4500 0 0 1200 0 1200 -4500 0 -4500 0 0
-1200z m8776 1085 l34 -14 0 -1060 0 -1060 -22 -15 c-20 -14 -441 -16 -4261
-16 -2902 0 -4244 3 -4258 10 -19 10 -19 33 -19 1074 0 1125 -2 1077 45 1089
11 2 1916 5 4233 6 3640 1 4218 -1 4248 -14z"/>
<path d="M325 2208 c-3 -7 -4 -461 -3 -1008 l3 -995 4205 0 4205 0 3 994 c1
726 -1 997 -9 1007 -16 20 -8397 21 -8404 2z m770 -218 c133 -16 223 -37 284
-66 60 -30 159 -122 186 -174 29 -55 55 -161 55 -221 0 -67 -39 -187 -76 -237
-89 -116 -242 -191 -424 -208 -54 -5 -68 -3 -79 10 -27 33 -1 59 83 85 100 30
169 84 211 167 29 56 30 65 30 184 0 107 -3 132 -21 171 -55 119 -150 177
-305 186 -90 5 -98 4 -118 -16 l-22 -22 3 -622 c4 -672 4 -674 57 -701 14 -8
51 -17 81 -21 64 -8 80 -19 80 -50 0 -12 -6 -27 -12 -33 -8 -6 -117 -10 -301
-10 -241 0 -290 2 -302 15 -35 34 -12 63 66 82 53 13 67 22 86 50 l23 35 -2
618 c-3 614 -3 618 -24 639 -15 14 -40 23 -80 28 -33 4 -65 10 -72 14 -20 13
-15 65 9 77 42 23 441 36 584 20z m7373 -12 c7 -6 12 -23 10 -37 -2 -21 -13
-29 -62 -46 -33 -12 -65 -30 -72 -41 -26 -40 -35 -258 -33 -844 0 -322 -2
-593 -6 -602 -9 -22 -38 -23 -59 -2 -9 8 -30 36 -48 62 -33 48 -103 143 -163
222 -61 80 -510 684 -528 710 -103 150 -146 205 -159 208 -11 2 -17 -8 -22
-35 -9 -56 -7 -516 4 -760 12 -274 19 -293 121 -309 24 -4 50 -11 57 -17 16
-13 15 -52 -1 -66 -18 -14 -427 -13 -444 1 -7 6 -13 23 -13 39 0 25 5 30 43
39 64 16 85 30 98 64 18 45 26 1161 9 1221 -16 57 -48 86 -123 110 -50 16 -63
25 -65 43 -7 47 9 52 168 52 82 0 156 -3 165 -6 9 -4 28 -30 42 -58 52 -103
144 -232 583 -816 129 -172 210 -270 221 -270 12 0 11 782 -1 878 -19 147 -26
158 -115 177 -68 15 -97 59 -56 87 24 17 428 13 449 -4z m-2718 -12 c190 1
359 3 375 5 l30 4 -3 -95 c-2 -51 -8 -102 -13 -113 -16 -29 -52 -18 -63 21 -5
19 -24 45 -42 58 -29 23 -39 25 -120 22 l-89 -3 -3 -330 c-1 -181 0 -339 3
-351 3 -14 22 -29 56 -42 42 -18 50 -25 47 -44 l-3 -23 -200 0 -200 0 0 25 c0
20 8 27 49 42 27 9 53 23 58 30 4 7 7 166 5 353 l-2 340 -83 3 c-61 2 -91 -2
-117 -14 -19 -9 -35 -20 -35 -24 0 -21 -54 -71 -74 -68 -29 4 -31 39 -7 128
22 79 35 95 66 83 11 -4 175 -7 365 -7z m-1275 -10 c78 -19 90 -36 99 -134 7
-89 2 -112 -24 -112 -21 0 -42 23 -66 74 -37 80 -153 121 -276 98 -143 -27
-232 -145 -245 -327 -13 -176 70 -337 206 -398 55 -25 170 -28 216 -5 67 32
93 54 118 98 31 56 50 73 73 68 34 -6 40 -34 20 -90 -46 -133 -66 -149 -218
-169 -196 -25 -367 19 -485 125 -90 82 -134 185 -134 321 0 157 63 283 187
368 104 72 190 96 344 96 74 1 150 -5 185 -13z m2297 -9 c158 -57 264 -190
290 -365 37 -253 -130 -483 -381 -523 -86 -14 -224 0 -288 29 -130 59 -227
173 -258 303 -56 240 71 478 299 559 80 29 256 27 338 -3z m-4673 2 c111 -19
181 -65 217 -143 46 -100 24 -187 -68 -270 l-60 -53 16 -29 c75 -134 169 -268
208 -295 40 -29 93 -29 122 0 21 21 21 28 21 355 0 360 0 358 -54 369 -32 7
-49 40 -32 61 13 16 578 21 626 5 17 -5 38 -21 47 -37 26 -44 164 -211 242
-292 39 -41 103 -110 141 -152 39 -43 76 -78 83 -78 11 0 13 40 10 218 -3 188
-5 222 -21 245 -9 15 -26 27 -37 27 -11 0 -29 9 -40 20 -16 16 -18 25 -10 40
10 18 21 20 145 20 108 0 137 -3 149 -16 9 -8 16 -18 16 -21 0 -12 -33 -43
-47 -43 -7 0 -22 -9 -33 -20 -19 -19 -20 -33 -20 -399 0 -332 -2 -382 -16
-395 -37 -37 -16 -58 -424 413 -66 76 -134 152 -179 198 -9 9 -17 11 -23 5
-14 -14 -5 -459 10 -494 7 -16 27 -35 49 -45 29 -14 38 -24 38 -43 l0 -25
-145 0 c-143 0 -145 0 -148 22 -3 17 6 28 33 44 19 12 40 29 45 39 6 11 10
149 10 335 l0 316 -24 22 c-38 35 -103 50 -150 33 -21 -7 -42 -19 -47 -27 -10
-16 -12 -658 -3 -684 4 -9 24 -25 45 -36 37 -18 52 -50 31 -63 -4 -2 -120 -6
-257 -7 -239 -3 -252 -3 -290 18 -64 34 -122 100 -195 224 -76 128 -88 142
-122 137 -22 -3 -23 -6 -26 -123 -1 -66 0 -130 3 -142 3 -13 22 -31 46 -43 31
-16 40 -26 37 -43 -3 -22 -5 -22 -183 -22 -180 0 -180 0 -183 23 -3 17 4 26
31 37 63 26 62 18 65 358 3 346 -1 374 -50 384 -16 3 -32 13 -35 21 -11 28 12
47 68 53 97 10 301 9 368 -2z m3125 -12 c28 -28 45 -149 25 -173 -22 -26 -53
-12 -73 33 -26 58 -61 73 -174 73 -64 0 -93 -4 -101 -14 -8 -9 -11 -56 -9
-142 l3 -129 93 -3 92 -3 20 46 c20 46 43 58 68 33 19 -19 16 -252 -3 -268
-23 -19 -49 -7 -60 26 -6 17 -16 38 -23 46 -16 20 -130 32 -167 18 l-27 -10 4
-134 c4 -179 2 -176 156 -176 134 0 164 12 207 85 27 48 44 55 69 29 20 -20
20 -25 -5 -104 -33 -108 -4 -100 -380 -100 -210 0 -330 4 -334 10 -14 22 7 50
44 60 68 18 66 8 66 369 0 341 -4 371 -43 371 -36 0 -55 43 -31 67 7 7 100 11
285 12 274 1 275 1 298 -22z m1812 -948 c22 -23 4 -55 -33 -60 -16 -2 -1316
-3 -2890 -1 l-2862 2 -11 21 c-16 28 2 47 48 52 20 2 1318 3 2884 3 2620 -1
2849 -2 2864 -17z m-2396 -128 c31 -23 48 -66 34 -88 -17 -28 -31 -26 -72 11
-22 20 -46 36 -53 36 -21 -1 -49 -25 -49 -43 0 -17 77 -87 96 -87 6 0 30 -20
53 -45 36 -39 41 -50 41 -91 0 -84 -54 -140 -147 -151 -102 -12 -177 35 -171
106 4 50 28 51 73 2 21 -22 46 -43 57 -47 28 -9 68 22 68 52 0 28 -23 52 -99
104 -79 54 -101 122 -61 187 46 76 161 103 230 54z m-3022 -10 c11 -6 32 -24
46 -42 37 -43 35 -94 -4 -139 -16 -19 -29 -41 -30 -48 0 -24 41 -93 82 -138
50 -54 46 -74 -14 -74 -74 1 -121 39 -173 140 -9 17 -22 30 -30 30 -21 0 -20
-74 1 -110 29 -48 15 -60 -73 -60 -102 0 -113 7 -84 53 19 31 21 49 21 179 0
117 -3 148 -15 158 -24 20 -19 59 8 65 69 16 225 8 265 -14z m570 20 c52 -10
52 -10 58 -52 4 -22 0 -41 -10 -54 -14 -20 -15 -20 -43 6 -58 55 -117 51 -126
-7 -4 -20 -2 -45 4 -55 12 -23 48 -25 75 -4 44 33 64 15 64 -60 0 -57 -20 -75
-60 -52 -58 35 -96 10 -84 -55 15 -76 68 -89 140 -34 25 19 52 32 60 29 29
-11 8 -88 -30 -115 -6 -4 -82 -8 -169 -8 -174 0 -188 5 -148 56 19 24 21 40
21 176 0 120 -3 153 -16 173 -28 43 -13 54 73 58 43 1 94 4 113 5 19 0 54 -3
78 -7z m1984 -12 c25 -14 35 -77 14 -97 -14 -15 -18 -14 -44 11 -36 35 -92 46
-115 22 -19 -19 -22 -57 -7 -86 13 -23 62 -26 80 -4 30 36 50 11 50 -60 0 -54
-19 -74 -52 -51 -31 22 -65 20 -78 -3 -16 -31 -12 -79 10 -101 35 -35 87 -23
143 33 26 26 42 16 45 -30 2 -32 -2 -46 -19 -62 -21 -19 -34 -21 -175 -21
-196 0 -207 4 -159 56 24 26 25 31 25 173 0 117 -3 151 -16 169 -30 44 -16 56
71 63 92 7 202 1 227 -12z m1094 8 c11 -10 5 -100 -6 -111 -7 -7 -19 -2 -37
12 -48 39 -70 47 -88 32 -14 -12 -16 -36 -13 -165 3 -130 6 -154 21 -169 10
-10 17 -26 15 -35 -3 -13 -20 -17 -96 -19 -106 -3 -118 5 -83 61 19 31 21 50
21 174 0 176 -8 189 -91 134 -52 -35 -74 -27 -63 23 15 72 10 71 222 70 105 0
195 -3 198 -7z m1032 0 c13 -9 16 -64 6 -91 -9 -24 -47 -19 -74 9 -27 29 -42
31 -63 11 -11 -12 -14 -44 -11 -160 3 -133 5 -148 26 -176 30 -41 16 -50 -84
-50 -112 0 -126 9 -88 57 18 23 20 41 20 179 0 143 -1 153 -20 159 -23 7 -59
-9 -82 -38 -14 -18 -19 -19 -32 -8 -22 18 -20 77 2 99 16 16 38 18 202 17 102
0 191 -4 198 -8z m505 -19 c9 -11 17 -33 17 -49 0 -43 -29 -54 -61 -23 -31 29
-92 42 -114 24 -9 -8 -15 -29 -15 -56 0 -58 19 -68 78 -42 24 11 48 16 52 11
4 -4 10 -31 13 -60 8 -70 -6 -81 -66 -55 -60 27 -77 16 -77 -48 0 -39 4 -52
22 -64 34 -24 71 -19 113 14 65 52 102 36 76 -33 -21 -54 -30 -57 -202 -57
-134 0 -161 2 -166 15 -3 9 3 25 13 36 16 18 19 41 22 168 3 123 1 151 -13
178 -29 53 -18 62 82 66 143 6 205 -1 226 -25z m-4135 10 c10 -13 95 -250 114
-320 6 -21 21 -49 35 -62 42 -42 28 -61 -47 -64 -35 -2 -75 0 -88 3 -22 5 -24
10 -19 42 4 21 0 49 -8 69 -12 29 -19 34 -48 34 -21 0 -41 -7 -51 -19 -18 -19
-20 -34 -14 -96 l3 -30 -65 0 c-52 0 -65 3 -68 16 -2 9 4 24 13 33 16 15 85
164 85 183 0 4 17 51 38 103 28 68 45 98 63 107 31 16 44 16 57 1z m517 1 c4
-6 0 -29 -8 -52 -20 -56 -19 -296 2 -320 24 -30 76 -21 122 20 33 30 44 35 57
26 24 -15 19 -69 -9 -99 -22 -23 -27 -24 -170 -24 -189 0 -202 5 -159 60 17
22 20 41 20 167 0 124 -3 147 -20 175 -29 47 -14 58 81 58 45 0 81 -5 84 -11z
m2427 -3 c8 -7 31 -65 52 -127 58 -173 86 -242 108 -266 36 -38 18 -53 -64
-53 -90 0 -102 7 -96 51 6 37 -6 79 -25 91 -7 4 -27 8 -44 8 -26 0 -36 -6 -49
-32 -14 -27 -15 -37 -4 -66 16 -45 4 -53 -70 -50 -65 3 -77 24 -37 66 14 15
30 43 35 62 6 19 20 60 32 90 12 30 30 78 40 106 42 119 83 159 122 120z"/>
<path d="M6514 1881 c-112 -29 -184 -160 -184 -338 0 -188 71 -342 180 -390
43 -19 156 -21 190 -4 62 33 94 67 124 130 30 64 31 70 31 206 0 134 -2 143
-31 211 -39 89 -78 140 -128 166 -43 22 -133 32 -182 19z"/>
<path d="M1943 1869 c-20 -20 -18 -312 2 -329 19 -16 99 -6 132 16 90 59 83
240 -12 295 -42 25 -107 34 -122 18z"/>
<path d="M1482 733 c3 -62 5 -68 25 -71 28 -4 66 52 57 83 -10 32 -35 55 -61
55 -23 0 -24 -2 -21 -67z"/>
<path d="M2590 661 c-14 -27 -13 -31 10 -31 15 0 20 7 20 25 0 30 -15 33 -30
6z"/>
<path d="M5537 658 c-7 -24 12 -43 26 -29 12 12 5 43 -9 48 -6 2 -14 -6 -17
-19z"/>
</g>
</svg>
